Jump_normalized_Motion_pl05
version=1
nRows=21
nColumns=43
inDegrees=yes
endheader
time		pelvis_tilt		pelvis_list		pelvis_rotation		pelvis_tx		pelvis_ty		pelvis_tz		hip_flexion_r		hip_adduction_r		hip_rotation_r		knee_angle_r		ankle_angle_r		subtalar_angle_r		mtp_angle_r		hip_flexion_l		hip_adduction_l		hip_rotation_l		knee_angle_l		ankle_angle_l		subtalar_angle_l		mtp_angle_l		lumbar_extension		lumbar_bending		lumbar_rotation		neck_flexion		neck_lateral_bending		neck_rotation		arm_flex_r		arm_add_r		arm_rot_r		elbow_flex_r		pro_sup_r		wrist_flex_r		wrist_dev_r		hand_finger_flex_r		arm_flex_l		arm_add_l		arm_rot_l		elbow_flex_l		pro_sup_l		wrist_flex_l		wrist_dev_l		hand_finger_flex_l		
0.427500		-2.940744		-9.680418		93.380434		0.024491		1.780822		1.891509		75.577981		-6.622705		6.653665		-133.603351		28.876297		-0.844501		8.703162		74.864642		-0.077730		7.521806		-129.585736		31.910937		-2.606376		7.407156		-54.753544		-0.600880		-2.767094		32.196893		1.096256		-2.729152		81.782632		-17.571604		26.052160		54.827858		70.627384		-37.160716		13.221938		36.711690		82.714577		-10.053953		16.107537		63.833676		108.295476		-15.413061		22.565765		84.583804		
0.430909		-2.951922		-9.917521		93.397477		0.024360		1.780478		1.890283		75.689071		-6.598651		6.687506		-133.616504		28.818161		-0.949962		8.623644		74.984062		-0.037404		7.502814		-129.610390		31.935031		-2.616729		7.404226		-54.618366		-0.609063		-2.844965		32.306370		1.174878		-2.708136		83.241404		-17.375047		26.556958		54.995028		70.448108		-36.939687		13.158400		36.660182		84.023681		-9.816599		16.580703		63.725494		108.247395		-15.430533		22.539379		84.591498		
0.434318		-2.964036		-10.121494		93.400517		0.024192		1.780246		1.889003		75.758563		-6.568449		6.703812		-133.642186		28.764448		-1.097099		8.541196		75.040717		-0.002474		7.469621		-129.639044		31.966567		-2.647520		7.398741		-54.521349		-0.619935		-2.924687		32.466397		1.243707		-2.676999		84.735954		-17.112829		26.976204		55.070492		70.203119		-36.696651		13.076537		36.607554		85.349011		-9.582490		17.028574		63.582794		108.049207		-15.467210		22.482607		84.577648		
0.437727		-2.960227		-10.374519		93.409843		0.024049		1.780058		1.887668		75.846412		-6.524452		6.727830		-133.635644		28.761741		-1.183521		8.493625		75.135826		0.016102		7.448667		-129.637418		32.016632		-2.668553		7.399325		-54.386222		-0.614227		-2.995582		32.684967		1.273105		-2.651762		86.128498		-16.743978		27.104891		55.200316		70.057267		-36.568621		12.966224		36.558628		86.601197		-9.265246		17.238154		63.483673		107.914901		-15.532049		22.414492		84.537172		
0.441136		-2.973054		-10.604195		93.401696		0.023870		1.779794		1.886343		75.940069		-6.499493		6.731240		-133.684846		28.735112		-1.296848		8.428995		75.231501		0.045587		7.413437		-129.691598		32.045257		-2.685794		7.397543		-54.261250		-0.634819		-3.057033		32.940982		1.351035		-2.617859		87.627877		-16.413884		27.360632		55.188753		69.890175		-36.373835		12.889483		36.515920		87.947224		-8.985861		17.648732		63.281159		107.736906		-15.583232		22.321819		84.476178		
0.444545		-3.001781		-10.746875		93.388226		0.023770		1.779847		1.884941		75.900832		-6.446526		6.771565		-133.662763		28.655229		-1.503955		8.267969		75.197047		0.056948		7.364404		-129.679470		32.027931		-2.719748		7.381393		-54.237534		-0.669103		-3.155349		32.979699		1.463842		-2.576836		89.195535		-16.194720		27.912110		55.232431		69.446219		-36.026435		12.714176		36.445300		89.347229		-8.895704		18.307268		63.118619		107.170963		-15.740527		22.091872		84.398892		
0.447955		-3.000350		-11.012663		93.386890		0.023577		1.779747		1.883516		75.986628		-6.399844		6.791827		-133.648812		28.662751		-1.571260		8.192839		75.301276		0.065770		7.332750		-129.684155		32.058471		-2.734498		7.377745		-54.093586		-0.661472		-3.216369		33.256639		1.489007		-2.546963		90.599752		-15.824576		28.004308		55.332102		69.247339		-35.936478		12.535136		36.362997		90.619051		-8.577513		18.514775		62.981673		106.925961		-15.881173		21.933268		84.319007		
0.451364		-3.005393		-11.239637		93.386615		0.023426		1.779775		1.882072		76.033643		-6.352188		6.835006		-133.618064		28.599331		-1.688797		8.042813		75.358902		0.081291		7.286127		-129.671542		32.016437		-2.747800		7.352360		-53.990765		-0.673920		-3.281407		33.388119		1.585489		-2.510901		92.138354		-15.622787		28.520408		55.396809		68.882361		-35.729113		12.324922		36.251225		91.995858		-8.404689		19.043356		62.793105		106.491606		-16.042961		21.621184		84.231351		
0.454773		-3.011385		-11.509227		93.384646		0.023337		1.779893		1.880591		76.099428		-6.313643		6.863174		-133.555387		28.582581		-1.766908		7.931113		75.435341		0.087725		7.263807		-129.627046		32.023046		-2.766226		7.334518		-53.856666		-0.681237		-3.359243		33.577438		1.617523		-2.481903		93.569150		-15.317485		28.772583		55.545094		68.592326		-35.621554		12.099596		36.143498		93.286216		-8.151542		19.277206		62.665836		106.147551		-16.216907		21.355323		84.151026		
0.458182		-3.038477		-11.758351		93.379181		0.023150		1.780040		1.879072		76.147567		-6.299061		6.890895		-133.526667		28.549817		-1.865854		7.732705		75.487017		0.127436		7.202105		-129.597493		32.017663		-2.802922		7.282957		-53.749532		-0.687590		-3.427567		33.840887		1.654675		-2.438952		95.119778		-15.082713		29.230141		55.579117		68.073795		-35.511575		11.773580		35.943169		94.638545		-7.920853		19.644778		62.449110		105.557225		-16.495590		20.918937		84.062490		
0.461591		-3.076794		-11.942824		93.378578		0.022978		1.780468		1.877454		76.091724		-6.291926		6.940206		-133.438564		28.524714		-1.999982		7.361443		75.425953		0.158387		7.124324		-129.517436		32.019192		-2.885979		7.179059		-53.710772		-0.697479		-3.522496		33.974352		1.668777		-2.400291		96.692960		-14.913599		29.904693		55.649874		67.061363		-35.428175		11.209286		35.574292		96.005588		-7.795846		20.151859		62.247123		104.455176		-17.021369		20.201385		83.966533		
0.465000		-3.075392		-12.312732		93.397929		0.022807		1.780646		1.875832		76.225496		-6.267915		6.967072		-133.356534		28.510980		-2.010382		7.317521		75.562823		0.188353		7.095088		-129.423460		32.024619		-2.865712		7.167258		-53.477858		-0.691351		-3.599323		34.162814		1.748127		-2.374840		98.069558		-14.553959		29.970877		55.768628		67.062795		-35.365580		11.139240		35.534739		97.262796		-7.463297		20.193022		62.139871		104.458627		-17.108015		20.117100		83.906418		
0.468409		-3.121556		-12.641963		93.397333		0.022693		1.780734		1.874203		76.356657		-6.297235		7.007748		-133.306746		28.459730		-2.073666		7.241013		75.687791		0.245441		7.043405		-129.398756		32.037401		-2.883074		7.147084		-53.290297		-0.727821		-3.682731		34.448118		1.823248		-2.334457		99.591058		-14.263090		30.229227		55.754551		67.029404		-35.204807		11.102223		35.524874		98.621086		-7.150237		20.369650		61.943771		104.372663		-17.215798		19.972646		83.826121		
0.471818		-3.177461		-12.935958		93.384958		0.022471		1.780962		1.872481		76.438101		-6.313023		7.072984		-133.262589		28.399412		-2.168178		7.126054		75.742453		0.318046		6.940001		-129.340216		32.048011		-2.946933		7.114841		-53.141531		-0.761311		-3.761357		34.688435		1.888177		-2.302443		101.132824		-14.001226		30.532504		55.735509		66.921520		-35.008875		11.055387		35.547890		99.987505		-6.885250		20.608584		61.749026		104.174065		-17.378473		19.762551		83.726451		
0.475227		-3.220453		-13.262737		93.363168		0.022314		1.781361		1.870682		76.486453		-6.305131		7.133219		-133.137279		28.376006		-2.236141		7.026610		75.793381		0.360469		6.863984		-129.231789		32.072683		-3.029323		7.089235		-52.964771		-0.800830		-3.839217		34.880104		1.927708		-2.288931		102.567331		-13.681057		30.636932		55.776492		66.813205		-34.908888		10.976566		35.575591		101.304364		-6.617564		20.736405		61.600317		104.002496		-17.558684		19.567986		83.618514		
0.478636		-3.248542		-13.612388		93.337957		0.022091		1.781755		1.868851		76.550286		-6.274797		7.195398		-133.015984		28.367869		-2.293123		6.943378		75.854329		0.391638		6.786635		-129.107754		32.087456		-3.113682		7.070035		-52.756957		-0.825007		-3.898341		35.059491		1.977099		-2.280928		103.970126		-13.339681		30.674629		55.810383		66.737820		-34.872553		10.898759		35.605664		102.614828		-6.351745		20.835266		61.457467		103.904001		-17.728140		19.396047		83.504670		
0.482045		-3.299070		-13.945738		93.292345		0.021884		1.782119		1.866979		76.626688		-6.242098		7.269904		-132.930009		28.353998		-2.372022		6.820070		75.918295		0.433277		6.671338		-129.023356		32.080125		-3.245314		7.041258		-52.571247		-0.873724		-3.951925		35.303011		2.036906		-2.268263		105.442745		-13.014682		30.805165		55.752690		66.629984		-34.862883		10.809099		35.659608		103.988873		-6.115131		21.025181		61.248548		103.774468		-17.953420		19.168155		83.359117		
0.485455		-3.342629		-14.305332		93.243666		0.021654		1.782595		1.865053		76.692038		-6.199002		7.353131		-132.793621		28.353377		-2.438774		6.689650		75.977793		0.461045		6.558491		-128.896677		32.063577		-3.382064		7.011307		-52.357864		-0.916663		-4.012197		35.503135		2.084882		-2.250151		106.880643		-12.677023		30.931110		55.712782		66.548374		-34.896339		10.651591		35.700968		105.329670		-5.886599		21.145945		61.072299		103.647448		-18.197801		18.922933		83.217813		
0.488864		-3.379612		-14.683982		93.191057		0.021393		1.783125		1.863071		76.762966		-6.156283		7.432404		-132.637484		28.357773		-2.495284		6.558690		76.046566		0.485479		6.445954		-128.760945		32.045827		-3.515667		6.980899		-52.125099		-0.953825		-4.072636		35.708089		2.123164		-2.218676		108.328702		-12.332678		31.099478		55.633462		66.520152		-34.917872		10.420507		35.712914		106.661840		-5.657164		21.215994		60.886607		103.526047		-18.439646		18.666714		83.086395		
0.492273		-3.461386		-15.006319		93.105459		0.021094		1.783895		1.861015		76.748196		-6.112507		7.569914		-132.434440		28.313534		-2.574764		6.273563		76.024541		0.514071		6.259743		-128.593861		31.957901		-3.767444		6.906260		-51.949075		-1.016880		-4.149129		35.800487		2.129814		-2.143454		109.914144		-12.084385		31.696388		55.424594		66.484022		-34.814154		9.881354		35.725154		108.016621		-5.539208		21.468803		60.690005		103.187730		-18.834136		18.169108		82.927037		
0.495682		-3.461953		-15.436491		93.078008		0.020849		1.784598		1.858886		76.827613		-6.088566		7.598961		-132.218739		28.360258		-2.591554		6.185643		76.100287		0.514428		6.195443		-128.408382		32.005303		-3.840809		6.888843		-51.671920		-1.016624		-4.205661		36.058703		2.139097		-2.110061		111.276405		-11.680499		31.687231		55.365696		66.496301		-34.783795		9.592513		35.671072		109.305075		-5.255339		21.340741		60.496244		103.078333		-19.036528		17.980901		82.828464		
